<svg xmlns="http://www.w3.org/2000/svg" xmlns:xlink="http://www.w3.org/1999/xlink" width="105.44" height="107.5" viewBox="0 0 105.44 107.5"><defs><filter id="a" x="5.061" y="12.479" width="95.021" height="95.021" filterUnits="userSpaceOnUse"><feOffset dy="1" input="SourceAlpha"/><feGaussianBlur stdDeviation="1" result="b"/><feFlood flood-opacity="0.161"/><feComposite operator="in" in2="b"/><feComposite in="SourceGraphic"/></filter><filter id="c" x="0" y="0" width="105.44" height="31.255" filterUnits="userSpaceOnUse"><feOffset dy="1" input="SourceAlpha"/><feGaussianBlur stdDeviation="1.5" result="d"/><feFlood flood-opacity="0.161"/><feComposite operator="in" in2="d"/><feComposite in="SourceGraphic"/></filter></defs><g transform="translate(4.5 3.5)"><g transform="translate(0 0)"><g transform="matrix(1, 0, 0, 1, -4.5, -3.5)" filter="url(#a)"><path d="M0,0H89.021a0,0,0,0,1,0,0V87.021a2,2,0,0,1-2,2H2a2,2,0,0,1-2-2V0A0,0,0,0,1,0,0Z" transform="translate(8.06 14.48)" fill="#e7eced"/></g><g transform="matrix(1, 0, 0, 1, -4.5, -3.5)" filter="url(#c)"><path d="M2,0H94.44a2,2,0,0,1,2,2V22.255a0,0,0,0,1,0,0H0a0,0,0,0,1,0,0V2A2,2,0,0,1,2,0Z" transform="translate(4.5 3.5)" fill="#b2b2b2"/></g><rect width="89.021" height="8.012" transform="translate(3.561 22.255)" fill="#d7dde2"/><path d="M0,0H89.021a0,0,0,0,1,0,0V4.528a2,2,0,0,1-2,2H2a2,2,0,0,1-2-2V0A0,0,0,0,1,0,0Z" transform="translate(3.561 93.472)" fill="#00abf6"/><rect width="44.511" height="10.386" rx="5.193" transform="translate(25.816 5.935)" fill="#425260"/><g transform="translate(25.816 37.685)"><rect width="44.511" height="44.51" rx="5" transform="translate(0)" fill="#fff"/><g transform="translate(7.276 5.243)"><g transform="translate(0 0)"><rect width="2.967" height="17.804" rx="1.484" transform="translate(13.056 2.57) rotate(-60)" fill="#00abf6"/><rect width="2.967" height="17.804" rx="1.484" transform="translate(15.419 0) rotate(60)" fill="#00abf6"/><path d="M1.484,0h0A1.484,1.484,0,0,1,2.967,1.484V17.8a0,0,0,0,1,0,0H0a0,0,0,0,1,0,0V1.484A1.484,1.484,0,0,1,1.484,0Z" transform="translate(0 9.988) rotate(-60)" fill="#00abf6"/></g><g transform="translate(0.011 14.964)"><rect width="2.967" height="17.804" rx="1.484" transform="translate(16.903 16.321) rotate(120)" fill="#00abf6"/><rect width="2.967" height="17.804" rx="1.484" transform="translate(14.54 18.89) rotate(-120)" fill="#00abf6"/><path d="M1.484,0h0A1.484,1.484,0,0,1,2.967,1.484V17.8a0,0,0,0,1,0,0H0a0,0,0,0,1,0,0V1.484A1.484,1.484,0,0,1,1.484,0Z" transform="translate(29.959 8.902) rotate(120)" fill="#00abf6"/></g></g></g></g></g></svg>